<?xml version="1.0" encoding="UTF-8"?>
<svg id="Layer_2" data-name="Layer 2" xmlns="http://www.w3.org/2000/svg" viewBox="0 0 1138.96 824.84">
  <defs>
    <style>
      .cls-1 {
        fill: #231f20;
      }

      .cls-2 {
        opacity: .66;
      }
    </style>
  </defs>
  <g id="Layer_1-2" data-name="Layer 1">
    <g class="cls-2">
      <path class="cls-1" d="M110.32,78.79c-3.86,8.91-8.1,17.66-12.59,26.27s-9.27,17.25-14.12,25.75-9.77,16.94-14.65,25.41c-4.9,8.5-9.75,17.03-14.41,25.67s-9.07,17.26-13.17,26.1c-.5,1.09-1,2.17-1.49,3.26-.13.29.3.55.43.25,4.01-8.88,8.38-17.59,12.96-26.19s9.43-17.21,14.31-25.71,9.8-16.92,14.66-25.41,9.66-17.04,14.24-25.7,8.86-17.3,12.82-26.17c.49-1.09.96-2.18,1.44-3.28.13-.29-.3-.55-.43-.25h0Z"/>
      <path class="cls-1" d="M167.61,70.6c-4.06,9.27-8.22,18.49-12.47,27.67s-8.59,18.37-12.99,27.5c-4.44,9.22-8.95,18.41-13.5,27.57s-9.14,18.31-13.76,27.44-9.33,18.37-14.01,27.55c-4.64,9.09-9.29,18.17-13.93,27.27s-9.3,18.25-13.91,27.39-9.15,18.2-13.67,27.34-9,18.32-13.42,27.52-8.7,18.3-12.93,27.5c-1.04,2.26-2.07,4.52-3.1,6.78-.13.29.3.55.43.25,4.21-9.25,8.5-18.46,12.86-27.64,4.36-9.17,8.79-18.31,13.27-27.43,4.51-9.18,9.07-18.33,13.66-27.46s9.19-18.2,13.82-27.29,9.31-18.24,13.97-27.36,9.33-18.27,13.97-27.41c4.65-9.17,9.29-18.35,13.88-27.55s9.07-18.28,13.53-27.46,8.85-18.37,13.17-27.6c4.27-9.14,8.47-18.32,12.57-27.55,1-2.26,2-4.52,2.99-6.79.13-.29-.3-.55-.43-.25h0Z"/>
      <path class="cls-1" d="M224.91,62.4c-6.15,14-12.41,27.94-18.76,41.85s-12.88,27.99-19.43,41.94-13.25,28.03-19.95,42.01-13.52,28.07-20.34,42.08-13.7,28.1-20.58,42.13c-6.86,14.01-13.74,28.01-20.61,42.02s-13.72,28.02-20.56,42.04-13.62,28.02-20.37,42.06c-6.74,14-13.43,28.03-20.05,42.08s-13.14,28.02-19.59,42.09c-1.57,3.43-3.14,6.86-4.71,10.3-.13.29.3.55.43.25,6.41-14.07,12.9-28.09,19.46-42.09,6.59-14.06,13.25-28.08,19.95-42.08s13.5-28.06,20.31-42.07,13.66-28.04,20.52-42.05,13.73-28.01,20.6-42.01,13.76-28.07,20.61-42.12c6.83-14.02,13.64-28.04,20.41-42.09s13.43-27.99,20.06-42.03,13.12-27.94,19.57-41.96,12.72-27.87,18.94-41.87c1.51-3.41,3.02-6.82,4.52-10.23.13-.29-.3-.55-.43-.25h0Z"/>
      <path class="cls-1" d="M282.2,54.2c-4.13,9.38-8.29,18.75-12.48,28.11-4.19,9.36-8.4,18.72-12.64,28.06s-8.56,18.83-12.88,28.23-8.65,18.79-13,28.17-8.78,18.89-13.2,28.33-8.84,18.85-13.28,28.26-8.95,18.94-13.45,28.41-8.98,18.89-13.48,28.33-9.03,18.91-13.56,28.36-9.1,19-13.66,28.49-9.1,18.94-13.65,28.41-9.06,18.85-13.59,28.28-9.06,18.86-13.59,28.29-9.08,18.93-13.62,28.41c-4.53,9.46-9.05,18.93-13.57,28.4-4.49,9.42-8.98,18.85-13.45,28.29s-8.93,18.84-13.37,28.27c-4.45,9.45-8.89,18.91-13.32,28.37s-8.78,18.82-13.14,28.24-8.72,18.87-13.05,28.32c-2.08,4.55-4.16,9.1-6.24,13.65-.13.29.3.55.43.25,4.31-9.45,8.63-18.88,12.98-28.31,4.34-9.42,8.7-18.83,13.08-28.23s8.83-18.91,13.26-28.36,8.87-18.85,13.32-28.27,8.97-18.93,13.47-28.39,8.98-18.86,13.49-28.29,9.06-18.94,13.6-28.41,9.05-18.86,13.58-28.29,9.06-18.86,13.59-28.29,9.1-18.92,13.64-28.39,9.11-18.98,13.66-28.47c4.53-9.45,9.06-18.91,13.58-28.37s9.02-18.89,13.52-28.34,9.01-18.95,13.49-28.43,8.94-18.92,13.39-28.39c4.42-9.41,8.83-18.82,13.21-28.24s8.73-18.79,13.07-28.19,8.66-18.83,12.96-28.25,8.51-18.71,12.73-28.09,8.41-18.75,12.58-28.14c2-4.51,4-9.03,5.99-13.55.13-.29-.3-.55-.43-.25h0Z"/>
      <path class="cls-1" d="M339.5,46c-5.19,11.77-10.41,23.53-15.66,35.28-5.26,11.77-10.54,23.52-15.84,35.27s-10.68,23.59-16.06,35.36-10.81,23.64-16.25,35.45-10.93,23.69-16.42,35.52c-5.52,11.91-11.07,23.81-16.62,35.71s-11.08,23.7-16.64,35.54-11.23,23.88-16.86,35.82c-5.6,11.88-11.21,23.76-16.83,35.63-5.66,11.97-11.33,23.93-17,35.89-5.64,11.89-11.28,23.78-16.92,35.67s-11.28,23.76-16.93,35.65-11.29,23.77-16.92,35.65-11.27,23.77-16.9,35.65c-5.64,11.92-11.28,23.83-16.91,35.76-5.59,11.83-11.17,23.67-16.74,35.51s-11.18,23.8-16.76,35.71c-5.53,11.81-11.04,23.63-16.55,35.45-5.52,11.87-11.03,23.75-16.52,35.64s-10.86,23.57-16.27,35.36c-2.63,5.74-5.25,11.47-7.87,17.21-.13.29.3.55.43.25,5.41-11.86,10.84-23.71,16.29-35.56s10.92-23.67,16.4-35.5,11.01-23.71,16.54-35.55,11.09-23.73,16.66-35.59c5.57-11.88,11.16-23.75,16.75-35.62s11.25-23.84,16.88-35.75c5.6-11.85,11.22-23.69,16.83-35.54s11.31-23.85,16.97-35.77,11.25-23.69,16.87-35.54c5.66-11.92,11.32-23.83,16.97-35.75s11.3-23.83,16.95-35.75,11.29-23.84,16.92-35.76c5.62-11.9,11.24-23.81,16.85-35.73s11.18-23.78,16.75-35.68,11.14-23.82,16.69-35.74c5.5-11.81,10.98-23.62,16.44-35.45,5.48-11.86,10.94-23.72,16.39-35.6s10.76-23.52,16.1-35.29,10.69-23.61,16-35.43,10.48-23.39,15.67-35.11c2.52-5.69,5.04-11.38,7.55-17.07.13-.29-.3-.55-.43-.25h0Z"/>
      <path class="cls-1" d="M383.57,57.86c-4.5,11.94-9.06,23.86-13.69,35.75s-9.28,23.71-14,35.53-9.59,23.86-14.46,35.76-9.76,23.71-14.7,35.54-10.03,23.9-15.11,35.83-10.16,23.79-15.29,35.67-10.31,23.8-15.5,35.68-10.43,23.8-15.67,35.69-10.49,23.73-15.75,35.59-10.62,23.89-15.95,35.83-10.54,23.61-15.82,35.42-10.61,23.74-15.91,35.61-10.54,23.59-15.79,35.4-10.57,23.75-15.83,35.64-10.44,23.61-15.64,35.43-10.39,23.69-15.55,35.56c-5.15,11.85-10.28,23.7-15.38,35.58s-10.15,23.71-15.17,35.59-9.94,23.61-14.85,35.45-9.8,23.74-14.63,35.63c-2.33,5.73-4.64,11.46-6.94,17.2-.12.3.36.43.48.13,4.79-11.94,9.64-23.86,14.53-35.76,4.87-11.85,9.79-23.69,14.74-35.51,5.02-11.98,10.08-23.94,15.17-35.89s10.13-23.66,15.24-35.47,10.29-23.72,15.48-35.57,10.4-23.71,15.63-35.55,10.48-23.69,15.74-35.53c5.26-11.84,10.54-23.68,15.82-35.52,5.26-11.8,10.54-23.59,15.81-35.39s10.61-23.73,15.91-35.6,10.58-23.69,15.85-35.54,10.62-23.87,15.9-35.82c5.25-11.85,10.48-23.71,15.69-35.58s10.45-23.85,15.63-35.8,10.26-23.69,15.34-35.56,10.09-23.65,15.09-35.5,9.97-23.76,14.89-35.66,9.77-23.75,14.58-35.65,9.54-23.74,14.23-35.65,9.29-23.74,13.84-35.64c2.19-5.73,4.37-11.46,6.53-17.19.11-.3-.37-.43-.48-.13h0Z"/>
      <path class="cls-1" d="M427.66,69.66c-3.78,12.03-7.66,24.02-11.63,35.99s-8.05,23.96-12.2,35.9-8.41,23.9-12.72,35.81c-4.33,11.94-8.72,23.85-13.18,35.74s-9,23.81-13.59,35.68c-4.6,11.89-9.25,23.77-13.94,35.62s-9.48,23.81-14.28,35.7-9.62,23.71-14.48,35.55-9.75,23.69-14.66,35.53-9.85,23.68-14.79,35.52-9.88,23.61-14.82,35.41-9.89,23.6-14.82,35.4-9.87,23.61-14.79,35.42c-4.92,11.81-9.82,23.62-14.69,35.45s-9.72,23.65-14.54,35.49c-4.81,11.83-9.6,23.68-14.34,35.54-4.74,11.85-9.43,23.72-14.08,35.6s-9.23,23.76-13.76,35.67-8.99,23.81-13.39,35.76-8.75,23.95-13.01,35.97c-2.04,5.75-4.06,11.51-6.07,17.27-.11.3.38.44.48.13,4.17-11.99,8.42-23.96,12.74-35.9s8.73-23.89,13.19-35.8,9-23.83,13.59-35.71,9.24-23.78,13.93-35.64,9.44-23.73,14.22-35.57c4.78-11.85,9.6-23.69,14.45-35.51s9.76-23.73,14.67-35.58,9.82-23.63,14.75-35.43c4.93-11.8,9.87-23.6,14.81-35.4s9.89-23.59,14.82-35.39,9.89-23.65,14.82-35.48,9.84-23.67,14.73-35.52,9.75-23.68,14.57-35.54,9.61-23.69,14.36-35.56,9.44-23.72,14.09-35.6,9.23-23.74,13.77-35.65,8.99-23.78,13.39-35.71,8.71-23.82,12.95-35.78,8.39-23.87,12.46-35.85c4.07-11.99,8.06-24.01,11.95-36.06,1.86-5.76,3.7-11.54,5.51-17.32.1-.31-.39-.44-.48-.13h0Z"/>
      <path class="cls-1" d="M471.75,81.46c-3.08,12.16-6.29,24.28-9.63,36.36-3.34,12.09-6.8,24.15-10.37,36.17-3.57,12.03-7.26,24.03-11.04,36s-7.67,23.93-11.64,35.85c-3.97,11.93-8.03,23.84-12.16,35.71-4.12,11.85-8.32,23.68-12.57,35.49s-8.58,23.62-12.95,35.39-8.83,23.64-13.3,35.44c-4.48,11.81-8.99,23.6-13.53,35.38s-9.11,23.57-13.7,35.35-9.19,23.57-13.79,35.35-9.21,23.57-13.81,35.37c-4.58,11.75-9.16,23.51-13.71,35.28-4.57,11.8-9.11,23.61-13.62,35.44-4.5,11.78-8.96,23.58-13.38,35.39-4.43,11.85-8.82,23.71-13.15,35.59s-8.6,23.78-12.8,35.7-8.33,23.86-12.38,35.82-8.01,23.95-11.89,35.97-7.65,24.06-11.32,36.14c-1.76,5.81-3.5,11.62-5.22,17.44-.09.31.39.44.48.13,3.57-12.11,7.24-24.18,11.02-36.22,3.78-12.05,7.66-24.06,11.62-36.05s8.02-23.96,12.15-35.89,8.34-23.86,12.61-35.76c4.27-11.9,8.61-23.78,12.99-35.64s8.8-23.64,13.26-35.43c4.46-11.8,8.96-23.58,13.49-35.35s9.11-23.62,13.7-35.41,9.19-23.59,13.79-35.38,9.21-23.57,13.81-35.36,9.18-23.56,13.75-35.35,9.11-23.57,13.62-35.36,8.96-23.51,13.38-35.29c4.43-11.81,8.82-23.63,13.15-35.47s8.57-23.6,12.76-35.44,8.33-23.75,12.39-35.66,8.02-23.82,11.9-35.78,7.66-23.92,11.34-35.92,7.25-24.02,10.7-36.09c3.45-12.06,6.79-24.14,9.99-36.27,1.54-5.83,3.05-11.66,4.53-17.51.08-.31-.4-.45-.48-.13h0Z"/>
      <path class="cls-1" d="M515.84,93.26c-2.38,12.27-4.92,24.51-7.62,36.71s-5.55,24.32-8.53,36.42-6.09,24.06-9.32,36.05-6.59,23.91-10.05,35.82-7.05,23.85-10.72,35.73-7.44,23.73-11.28,35.56-7.76,23.63-11.74,35.42-8,23.48-12.08,35.19-8.2,23.42-12.36,35.1c-4.17,11.73-8.37,23.45-12.59,35.16s-8.49,23.52-12.75,35.28-8.51,23.48-12.75,35.22-8.47,23.5-12.68,35.25c-4.22,11.8-8.41,23.61-12.55,35.43s-8.25,23.66-12.3,35.52-8.04,23.74-11.95,35.64-7.74,23.76-11.48,35.68-7.4,23.88-10.95,35.86c-3.57,12.03-7.03,24.09-10.37,36.18s-6.57,24.25-9.66,36.42c-1.49,5.86-2.94,11.73-4.37,17.61-.08.31.41.45.48.13,2.96-12.22,6.06-24.4,9.29-36.55s6.58-24.23,10.04-36.3,7.01-24,10.67-35.96,7.41-23.87,11.24-35.76,7.76-23.83,11.75-35.71,8.04-23.74,12.14-35.58,8.25-23.66,12.44-35.47,8.38-23.53,12.61-35.28c4.23-11.75,8.47-23.49,12.72-35.23,4.26-11.78,8.53-23.55,12.79-35.33,4.24-11.72,8.47-23.45,12.67-35.19s8.34-23.37,12.46-35.07,8.2-23.41,12.22-35.14,8.02-23.55,11.93-35.36,7.75-23.63,11.51-35.49,7.43-23.73,11-35.64,7.02-23.78,10.37-35.72,6.58-23.92,9.69-35.93,6.1-24.16,8.94-36.29,5.54-24.35,8.07-36.57c1.22-5.89,2.4-11.78,3.55-17.69.06-.31-.42-.45-.48-.13h0Z"/>
      <path class="cls-1" d="M571.64,74.53c-1.21,12.23-2.63,24.43-4.23,36.61-1.61,12.22-3.4,24.42-5.37,36.59-1.96,12.11-4.08,24.19-6.36,36.24s-4.7,24.09-7.26,36.09-5.26,24-8.07,35.96-5.74,23.92-8.77,35.85-6.16,23.86-9.37,35.75-6.51,23.8-9.87,35.68c-3.36,11.89-6.79,23.76-10.27,35.62s-7.01,23.74-10.56,35.59c-3.56,11.85-7.14,23.7-10.74,35.54s-7.19,23.61-10.8,35.42-7.23,23.7-10.82,35.56-7.17,23.72-10.71,35.6-7.04,23.76-10.5,35.66-6.83,23.73-10.15,35.63-6.59,23.87-9.76,35.84-6.26,23.95-9.25,35.97-5.87,24.04-8.63,36.11-5.4,24.15-7.91,36.27c-1.21,5.86-2.39,11.73-3.54,17.6-.06.31.42.45.48.13,2.37-12.15,4.88-24.26,7.52-36.35,2.64-12.09,5.41-24.15,8.29-36.18s5.87-24.05,8.96-36.03,6.29-24.03,9.56-36.02c3.26-11.95,6.6-23.88,9.99-35.79,3.4-11.92,6.86-23.81,10.36-35.7,3.5-11.89,7.05-23.76,10.62-35.63s7.17-23.72,10.78-35.57c3.61-11.85,7.23-23.69,10.84-35.54s7.24-23.76,10.83-35.64,7.14-23.7,10.66-35.57,7-23.72,10.42-35.6,6.78-23.75,10.07-35.65c3.28-11.88,6.5-23.79,9.62-35.71s6.15-23.84,9.07-35.8,5.73-23.91,8.41-35.9,5.24-23.99,7.65-36.03,4.68-24.09,6.8-36.17c2.11-12.08,4.06-24.2,5.84-36.33s3.36-24.21,4.75-36.34c.68-5.91,1.31-11.82,1.9-17.73.03-.32-.47-.32-.5,0h0Z"/>
      <path class="cls-1" d="M627.45,55.73c-.04,12.22-.33,24.45-.83,36.66-.5,12.12-1.22,24.23-2.14,36.32-.92,12.14-2.04,24.26-3.34,36.36-1.31,12.17-2.8,24.33-4.45,36.46-1.65,12.1-3.46,24.17-5.4,36.22s-4.05,24.13-6.26,36.17-4.56,24.1-7,36.12-5,24.08-7.63,36.09c-2.63,12-5.34,23.98-8.11,35.94-2.8,12.07-5.66,24.12-8.56,36.17s-5.79,23.82-8.73,35.72c-2.96,11.97-5.95,23.94-8.94,35.91-2.98,11.9-5.96,23.79-8.93,35.69s-5.96,23.88-8.9,35.83-5.86,23.9-8.73,35.86-5.69,23.92-8.44,35.91-5.44,23.96-8.05,35.96-5.12,24-7.53,36.02c-2.41,12.01-4.72,24.04-6.91,36.1s-4.24,24.02-6.16,36.06c-.93,5.85-1.83,11.71-2.7,17.58-.05.31.44.45.48.13,1.79-12.14,3.73-24.25,5.8-36.34,2.06-12.03,4.25-24.03,6.55-36.01,2.32-12.08,4.75-24.14,7.27-36.18,2.52-12.01,5.13-24.01,7.82-35.99s5.45-23.97,8.27-35.93,5.69-23.93,8.61-35.88,5.86-23.9,8.83-35.84,5.98-23.96,8.98-35.93c2.98-11.89,5.96-23.78,8.92-35.68,2.98-11.96,5.94-23.93,8.87-35.91s5.8-23.89,8.63-35.85c2.85-12.04,5.64-24.1,8.36-36.17s5.34-24.03,7.88-36.07,4.98-24.05,7.31-36.1c2.33-12.03,4.54-24.07,6.62-36.14,2.08-12.04,4.03-24.11,5.82-36.19s3.42-24.03,4.89-36.08,2.77-24.2,3.88-36.32c1.11-12.16,2.03-24.33,2.74-36.52s1.2-24.24,1.47-36.37c.13-5.91.21-11.82.23-17.73,0-.32-.5-.32-.5,0h0Z"/>
      <path class="cls-1" d="M683.26,36.93c1.13,12.17,2,24.36,2.61,36.57.6,12.1.95,24.21,1.07,36.33.12,12.15,0,24.31-.31,36.46-.32,12.16-.86,24.32-1.58,36.46s-1.64,24.32-2.72,36.47c-1.08,12.17-2.33,24.33-3.73,36.47-1.41,12.24-2.96,24.45-4.63,36.66-1.67,12.18-3.47,24.34-5.37,36.48-1.9,12.14-3.89,24.26-5.97,36.36s-4.27,24.42-6.51,36.61-4.47,24.04-6.77,36.04-4.67,24.15-7.04,36.22c-2.36,12-4.73,23.99-7.11,35.98s-4.76,24.07-7.12,36.11c-2.36,12.03-4.69,24.07-6.99,36.11-2.29,12.03-4.54,24.07-6.73,36.12s-4.31,24.07-6.35,36.12c-2.03,11.99-3.98,23.99-5.82,36s-3.6,24.15-5.23,36.25-3.09,23.87-4.43,35.84c-.65,5.84-1.27,11.68-1.86,17.52-.03.32.47.32.5,0,1.21-12.1,2.57-24.19,4.07-36.26,1.5-12.08,3.13-24.14,4.88-36.19,1.75-12.06,3.61-24.1,5.56-36.13,1.96-12.06,4-24.1,6.12-36.12s4.32-24.09,6.56-36.12c2.25-12.05,4.55-24.08,6.88-36.11,2.33-12.04,4.7-24.08,7.07-36.11,2.38-12.04,4.76-24.07,7.14-36.1s4.73-23.98,7.06-35.98,4.66-24.13,6.93-36.21,4.48-24.16,6.63-36.25c2.16-12.19,4.26-24.39,6.26-36.61,1.98-12.1,3.88-24.22,5.66-36.36,1.77-12.08,3.43-24.18,4.96-36.3,1.53-12.14,2.93-24.3,4.17-36.47,1.24-12.14,2.32-24.3,3.22-36.47.9-12.14,1.62-24.3,2.14-36.46.52-12.11.84-24.22.94-36.34.1-12.19-.02-24.39-.39-36.58-.37-12.12-.97-24.23-1.84-36.33-.42-5.9-.91-11.79-1.46-17.67-.03-.32-.53-.32-.5,0h0Z"/>
      <path class="cls-1" d="M739.07,18.2c2.29,11.99,4.29,24.04,6.01,36.13,1.72,12.1,3.15,24.24,4.31,36.41s2.05,24.12,2.71,36.21c.66,12.09,1.08,24.19,1.29,36.29.21,12.2.2,24.41,0,36.61-.2,12.15-.59,24.29-1.15,36.43s-1.29,24.33-2.16,36.48c-.88,12.23-1.9,24.44-3.04,36.65s-2.41,24.47-3.78,36.68-2.83,24.4-4.36,36.59-3.17,24.49-4.84,36.72-3.4,24.44-5.15,36.66c-1.76,12.22-3.54,24.44-5.34,36.65s-3.58,24.34-5.36,36.52-3.56,24.41-5.29,36.61c-1.72,12.13-3.41,24.26-5.04,36.4-1.63,12.13-3.2,24.27-4.68,36.42s-2.89,24.23-4.18,36.36-2.49,24.27-3.56,36.42-2,24.22-2.78,36.35c-.38,5.82-.72,11.65-1.02,17.48-.02.32.48.32.5,0,.63-12.11,1.42-24.22,2.36-36.31.94-12.14,2.01-24.27,3.2-36.39,1.19-12.16,2.51-24.31,3.91-36.46s2.91-24.35,4.48-36.51,3.22-24.42,4.92-36.62,3.44-24.4,5.2-36.6c1.77-12.21,3.56-24.42,5.36-36.63,1.79-12.17,3.58-24.35,5.36-36.53s3.55-24.51,5.27-36.78c1.7-12.11,3.36-24.23,4.96-36.35s3.15-24.46,4.61-36.7c1.45-12.22,2.82-24.45,4.08-36.7,1.25-12.17,2.39-24.35,3.39-36.54,1.01-12.2,1.88-24.41,2.6-36.63.71-12.18,1.27-24.38,1.64-36.58.37-12.13.57-24.26.56-36.4s-.23-24.39-.67-36.57c-.44-12.09-1.11-24.18-2.03-36.25s-2.09-24.21-3.54-36.28c-1.44-12.04-3.15-24.05-5.15-36.01-.97-5.81-2.01-11.6-3.12-17.39-.06-.32-.54-.18-.48.13h0Z"/>
      <path class="cls-1" d="M784.98,33.77c2.67,11.38,5.08,22.82,7.25,34.3,2.16,11.44,4.07,22.92,5.76,34.44s3.15,23.05,4.41,34.62c1.25,11.5,2.29,23.02,3.15,34.55s1.54,23.17,2.05,34.77c.51,11.57.86,23.15,1.06,34.73.2,11.6.26,23.2.2,34.8s-.25,23.32-.54,34.98-.69,23.35-1.16,35.03c-.48,11.65-1.03,23.29-1.65,34.93s-1.32,23.59-2.05,35.38-1.52,23.82-2.33,35.73c-.8,11.86-1.62,23.73-2.44,35.59s-1.64,23.71-2.44,35.57c-.8,11.88-1.58,23.77-2.32,35.65s-1.43,23.73-2.05,35.6c-.62,11.8-1.18,23.6-1.65,35.41-.47,11.77-.85,23.55-1.13,35.33-.28,11.78-.44,23.57-.48,35.36-.04,11.71.06,23.42.3,35.13.12,5.66.27,11.31.47,16.97.01.32.51.32.5,0-.4-11.73-.63-23.46-.73-35.19-.09-11.77-.05-23.54.12-35.31s.45-23.61.84-35.41c.38-11.79.86-23.59,1.42-35.37.56-11.82,1.19-23.63,1.87-35.45.69-11.88,1.43-23.75,2.21-35.63.78-11.89,1.58-23.78,2.4-35.67.82-11.9,1.65-23.8,2.47-35.71s1.62-23.73,2.39-35.6c.77-11.86,1.51-23.73,2.2-35.6.68-11.72,1.3-23.44,1.86-35.16s1.03-23.36,1.41-35.04c.38-11.67.68-23.33.85-35,.18-11.61.24-23.22.17-34.83-.07-11.63-.28-23.26-.64-34.89-.36-11.57-.87-23.14-1.56-34.69-.69-11.59-1.56-23.16-2.62-34.72s-2.33-23.1-3.8-34.62c-1.47-11.47-3.16-22.92-5.07-34.33s-4.09-22.88-6.5-34.25c-1.17-5.53-2.4-11.04-3.69-16.54-.07-.31-.56-.18-.48.13h0Z"/>
      <path class="cls-1" d="M830.88,49.33c3.05,10.83,5.88,21.73,8.5,32.68s5.01,21.86,7.22,32.85,4.2,21.89,6.03,32.88c1.83,10.98,3.48,21.99,4.98,33.02,1.51,11.12,2.86,22.27,4.07,33.43,1.2,11.11,2.27,22.23,3.21,33.36.94,11.1,1.76,22.21,2.47,33.33.72,11.17,1.34,22.34,1.87,33.52s.98,22.3,1.36,33.45c.38,11.2.7,22.4.98,33.6s.5,22.71.7,34.07c.2,11.51.37,23.02.54,34.53s.32,23.01.48,34.52c.16,11.45.34,22.9.54,34.36.2,11.44.44,22.87.72,34.3.28,11.45.62,22.91,1.03,34.36.41,11.42.88,22.85,1.45,34.27.56,11.35,1.22,22.7,1.98,34.03.77,11.35,1.64,22.7,2.65,34.03s2.14,22.52,3.42,33.76c.62,5.45,1.28,10.9,1.98,16.34.04.31.54.32.5,0-1.44-11.25-2.72-22.52-3.86-33.81s-2.14-22.63-3.02-33.96c-.88-11.32-1.63-22.64-2.29-33.98-.66-11.44-1.22-22.89-1.7-34.34-.48-11.39-.87-22.79-1.21-34.19s-.62-22.93-.85-34.4-.44-22.97-.61-34.46-.33-22.92-.49-34.38c-.16-11.51-.32-23.02-.49-34.53-.18-11.51-.38-23.02-.61-34.53-.23-11.2-.5-22.39-.83-33.59s-.71-22.39-1.17-33.59c-.46-11.19-.99-22.37-1.62-33.54s-1.35-22.33-2.18-33.48c-.83-11.14-1.78-22.28-2.85-33.4s-2.27-22.14-3.62-33.19-2.84-22.04-4.5-33.03c-1.67-11.05-3.51-22.08-5.53-33.07-2.02-10.97-4.22-21.91-6.62-32.81-2.42-10.97-5.03-21.89-7.87-32.76-1.38-5.28-2.8-10.54-4.28-15.79-.09-.31-.57-.18-.48.13h0Z"/>
      <path class="cls-1" d="M876.79,64.9c3.45,10.35,6.71,20.77,9.79,31.24s5.97,20.92,8.7,31.45,5.29,21.05,7.71,31.63c2.41,10.57,4.68,21.17,6.82,31.8s4.14,21.27,6.03,31.94c1.89,10.67,3.66,21.36,5.34,32.07,1.68,10.71,3.25,21.43,4.75,32.17,1.5,10.8,2.93,21.6,4.28,32.42,1.35,10.76,2.63,21.53,3.87,32.31,1.24,10.78,2.43,21.56,3.58,32.35s2.32,21.9,3.45,32.85c1.13,10.99,2.25,21.98,3.38,32.98s2.26,22.05,3.41,33.07c1.15,11.01,2.32,22.02,3.54,33.03,1.21,10.99,2.46,21.98,3.77,32.96s2.67,21.92,4.11,32.87c1.43,10.87,2.94,21.73,4.54,32.58s3.29,21.68,5.1,32.5c1.81,10.84,3.73,21.67,5.78,32.47,2.05,10.79,4.23,21.55,6.55,32.29,1.13,5.21,2.29,10.41,3.49,15.6.07.31.55.18.48-.13-2.47-10.7-4.79-21.43-6.96-32.19-2.18-10.77-4.22-21.56-6.14-32.38s-3.72-21.68-5.42-32.55-3.3-21.78-4.82-32.69-2.96-21.99-4.33-32.99-2.67-21.94-3.92-32.92-2.46-21.99-3.63-33-2.32-22.03-3.45-33.05c-1.13-11.03-2.26-22.06-3.38-33.09-1.13-11.03-2.26-22.07-3.42-33.1s-2.3-21.64-3.5-32.45c-1.19-10.74-2.42-21.48-3.71-32.21-1.29-10.77-2.64-21.53-4.06-32.28s-2.9-21.37-4.48-32.04c-1.58-10.72-3.26-21.43-5.04-32.12s-3.67-21.36-5.68-32c-2.01-10.65-4.15-21.27-6.42-31.87s-4.68-21.1-7.24-31.6c-2.58-10.55-5.31-21.07-8.21-31.54-2.91-10.5-5.99-20.95-9.25-31.34-1.59-5.06-3.22-10.1-4.89-15.13-.1-.3-.58-.17-.48.13h0Z"/>
      <path class="cls-1" d="M922.7,80.47c3.87,9.93,7.58,19.92,11.15,29.96s6.96,20.09,10.23,30.21c3.26,10.06,6.38,20.17,9.38,30.31,3.01,10.17,5.9,20.38,8.69,30.62s5.46,20.5,8.05,30.79,5.08,20.6,7.5,30.94,4.77,20.69,7.05,31.05c2.28,10.33,4.49,20.68,6.66,31.03s4.31,20.81,6.42,31.22,4.18,20.84,6.24,31.26,4.12,20.93,6.17,31.39,4.13,21.07,6.21,31.6,4.18,21.05,6.31,31.57c2.12,10.47,4.28,20.94,6.48,31.39s4.47,20.96,6.79,31.43c2.32,10.46,4.7,20.9,7.17,31.32s5.01,20.81,7.64,31.18c2.64,10.37,5.37,20.71,8.21,31.02s5.77,20.52,8.84,30.72c3.08,10.25,6.29,20.46,9.63,30.63,1.62,4.92,3.27,9.82,4.95,14.71.1.3.59.17.48-.13-3.48-10.12-6.82-20.3-10.03-30.51s-6.27-20.46-9.23-30.74-5.77-20.52-8.49-30.82-5.36-20.72-7.91-31.11c-2.54-10.4-5-20.82-7.39-31.26-2.39-10.44-4.7-20.91-6.96-31.38-2.26-10.48-4.46-20.97-6.63-31.47-2.16-10.47-4.27-20.94-6.37-31.42s-4.18-21.06-6.25-31.59-4.13-21.07-6.2-31.61-4.1-20.82-6.17-31.22c-2.08-10.42-4.18-20.84-6.32-31.24-2.14-10.4-4.31-20.8-6.54-31.19-2.22-10.34-4.49-20.67-6.84-30.99-2.35-10.35-4.77-20.68-7.27-31-2.5-10.31-5.09-20.6-7.77-30.86s-5.47-20.5-8.37-30.71c-2.9-10.21-5.91-20.39-9.05-30.52-3.13-10.11-6.39-20.18-9.79-30.2s-6.98-20.11-10.69-30.08c-1.8-4.83-3.63-9.64-5.5-14.44-.12-.3-.6-.17-.48.13h0Z"/>
      <path class="cls-1" d="M953.85,75.82c3.34,7.75,6.55,15.56,9.65,23.41,3.05,7.73,5.99,15.51,8.82,23.33s5.58,15.71,8.22,23.61,5.16,15.74,7.61,23.64c2.46,7.94,4.84,15.9,7.15,23.89s4.52,15.9,6.69,23.88,4.3,16.05,6.37,24.09,4.07,16.02,6.05,24.05,3.94,16.14,5.87,24.21c1.92,8.04,3.82,16.09,5.7,24.13s3.81,16.31,5.71,24.47,3.79,16.29,5.7,24.44c1.92,8.18,3.85,16.36,5.81,24.53s3.92,16.26,5.93,24.37,4.08,16.29,6.19,24.42c2.1,8.09,4.25,16.17,6.46,24.22,2.22,8.1,4.5,16.18,6.86,24.24s4.77,16.02,7.28,24,5.13,16.01,7.83,23.97,5.49,15.83,8.39,23.69c1.42,3.84,2.86,7.68,4.33,11.5.11.3.6.17.48-.13-3.02-7.87-5.94-15.78-8.75-23.72-2.8-7.93-5.5-15.9-8.11-23.9-2.59-7.95-5.09-15.93-7.52-23.93s-4.78-16.1-7.07-24.18c-2.28-8.08-4.5-16.18-6.66-24.29s-4.24-16.17-6.29-24.27c-2.06-8.14-4.08-16.3-6.06-24.46s-3.94-16.34-5.87-24.51c-1.93-8.18-3.85-16.36-5.76-24.55s-3.79-16.3-5.69-24.44c-1.89-8.11-3.79-16.21-5.7-24.31s-3.84-16.16-5.79-24.23-3.93-16.06-5.94-24.07c-2.03-8.05-4.1-16.1-6.22-24.13-2.12-8.03-4.3-16.05-6.55-24.04-2.24-8-4.55-15.98-6.94-23.94s-4.83-15.83-7.37-23.71c-2.56-7.92-5.2-15.82-7.94-23.68-2.75-7.88-5.6-15.72-8.55-23.52s-6.01-15.53-9.19-23.23c-1.53-3.71-3.09-7.42-4.68-11.11-.13-.29-.56-.04-.43.25h0Z"/>
      <path class="cls-1" d="M984.99,71.1c5.49,10.9,10.64,21.97,15.5,33.16,4.84,11.15,9.38,22.43,13.69,33.8,4.25,11.22,8.28,22.53,12.13,33.89s7.53,22.72,11.11,34.14,7.08,22.92,10.53,34.4c3.5,11.62,6.96,23.24,10.46,34.86,3.5,11.6,7.03,23.2,10.68,34.75s7.4,23.1,11.34,34.58,8.09,23.02,12.47,34.4,9.01,22.68,13.94,33.84c1.2,2.73,2.42,5.44,3.66,8.15.13.29.56.04.43-.25-5.13-11.22-9.95-22.58-14.5-34.05s-8.74-22.8-12.79-34.32c-4.02-11.45-7.85-22.96-11.55-34.52s-7.27-23.12-10.79-34.72c-3.53-11.63-7-23.28-10.49-34.93s-6.91-22.99-10.46-34.46-7.16-22.83-10.93-34.19-7.71-22.71-11.86-33.96c-4.18-11.33-8.58-22.59-13.25-33.73s-9.65-22.23-14.94-33.13c-1.29-2.67-2.61-5.32-3.94-7.97-.14-.29-.58-.03-.43.25h0Z"/>
      <path class="cls-1" d="M1016.12,66.39c8.67,12.81,16.61,26.11,23.99,39.7,7.18,13.22,13.84,26.71,20.27,40.31s12.64,27.35,18.93,41.04c6.37,13.85,12.83,27.66,19.7,41.27,6.96,13.78,14.35,27.35,22.42,40.52,1.01,1.65,2.04,3.3,3.07,4.94.17.27.6.02.43-.25-8.3-13.17-15.9-26.77-23.02-40.62-6.96-13.54-13.48-27.3-19.87-41.12-6.33-13.7-12.53-27.46-18.92-41.12-6.38-13.64-12.96-27.19-20.03-40.48s-14.9-26.81-23.32-39.62c-1.06-1.62-2.14-3.22-3.22-4.82-.18-.26-.61-.02-.43.25h0Z"/>
      <path class="cls-1" d="M1047.34,61.77c12.46,7.82,24.41,16.4,36.15,25.27s22.66,17.48,34.23,25.91c6.83,4.98,13.78,9.81,20.88,14.41.27.18.52-.26.25-.43-12.43-8.05-24.36-16.84-36.13-25.82s-22.56-17.41-34.15-25.69c-6.85-4.89-13.83-9.6-20.96-14.08-.27-.17-.52.26-.25.43h0Z"/>
      <path class="cls-1" d="M795.73,76.87c10.51-.46,21.03-.78,31.55-.98,10.45-.19,20.9-.25,31.34-.19s20.8.24,31.19.54,20.74.69,31.1,1.2c10.36.5,20.72,1.1,31.06,1.8s20.47,1.45,30.69,2.3c10.25.85,20.49,1.77,30.73,2.76s20.58,2.05,30.86,3.16,20.7,2.28,31.04,3.49c10.43,1.22,20.85,2.48,31.28,3.77,2.56.32,5.12.64,7.68.96.32.04.32-.46,0-.5-10.44-1.31-20.89-2.59-31.34-3.83-10.36-1.23-20.72-2.42-31.09-3.57s-20.59-2.22-30.9-3.24-20.5-1.97-30.76-2.86-20.44-1.69-30.67-2.41c-10.33-.73-20.66-1.38-31-1.93s-20.72-1-31.09-1.35-20.78-.58-31.17-.7-20.87-.12-31.3,0-21,.38-31.5.78c-2.57.1-5.15.2-7.72.31-.32.01-.32.51,0,.5h0Z"/>
      <path class="cls-1" d="M544.07,91.93c8.81-1.5,17.63-2.93,26.46-4.31s17.56-2.66,26.35-3.9,17.69-2.43,26.55-3.56,17.66-2.18,26.51-3.19,17.59-1.94,26.4-2.83,17.69-1.73,26.54-2.52,17.62-1.51,26.43-2.19c8.85-.68,17.71-1.31,26.57-1.9s17.64-1.11,26.47-1.6,17.74-.93,26.61-1.33,17.74-.75,26.61-1.07,17.86-.59,26.79-.82,17.79-.42,26.68-.58,17.88-.28,26.82-.36,17.81-.13,26.72-.15,17.91,0,26.86.05,17.84.12,26.76.23,17.94.24,26.9.4,17.87.34,26.8.55,17.96.44,26.94.7c4.33.12,8.65.25,12.98.38.32,0,.32-.49,0-.5-8.98-.27-17.97-.53-26.95-.76s-17.87-.44-26.81-.62-17.94-.34-26.91-.48-17.93-.24-26.89-.31-17.83-.12-26.75-.14-17.9,0-26.85.05-17.89.14-26.83.26-17.79.28-26.69.47-17.87.43-26.8.71-17.85.59-26.78.95-17.68.76-26.52,1.2-17.73.94-26.6,1.47-17.72,1.12-26.58,1.76-17.63,1.31-26.44,2.04-17.7,1.52-26.55,2.36-17.69,1.74-26.53,2.69-17.6,1.95-26.39,3.01-17.67,2.19-26.5,3.38-17.54,2.42-26.3,3.72-17.65,2.68-26.47,4.12c-4.25.69-8.49,1.4-12.74,2.12-.32.05-.18.54.13.48h0Z"/>
      <path class="cls-1" d="M292.34,107c12.32-2.75,24.65-5.41,37.01-7.98s24.71-5.04,37.1-7.42,24.69-4.66,37.06-6.85,24.74-4.3,37.13-6.33,24.87-3.98,37.32-5.85,24.91-3.65,37.38-5.36,25.07-3.35,37.62-4.91,24.9-3.02,37.37-4.43,24.93-2.74,37.41-4,25.04-2.47,37.57-3.61,25.34-2.23,38.01-3.25,25.4-1.98,38.1-2.88c12.7-.9,25.41-1.73,38.12-2.52s25.5-1.51,38.26-2.18,25.51-1.29,38.27-1.86,25.43-1.08,38.14-1.55,25.42-.89,38.14-1.27,25.5-.72,38.25-1.01c12.74-.3,25.48-.55,38.23-.77s25.47-.4,38.2-.55c6.12-.07,12.23-.13,18.35-.19.32,0,.32-.5,0-.5-12.73.12-25.46.27-38.19.45s-25.48.4-38.22.66-25.49.56-38.24.9c-12.75.34-25.5.72-38.26,1.15s-25.43.9-38.14,1.42-25.51,1.09-38.27,1.71-25.43,1.29-38.14,2.02-25.51,1.51-38.25,2.36-25.5,1.75-38.24,2.71c-12.74.96-25.48,1.99-38.22,3.08s-25.13,2.22-37.68,3.43-25.04,2.48-37.55,3.82-24.93,2.75-37.39,4.23-24.99,3.04-37.46,4.68c-12.38,1.62-24.75,3.32-37.11,5.09s-24.91,3.66-37.35,5.61-24.87,3.98-37.29,6.1-24.83,4.33-37.21,6.62-24.78,4.68-37.14,7.15-24.72,5.04-37.05,7.71c-5.93,1.28-11.85,2.58-17.77,3.91-.31.07-.18.55.13.48h0Z"/>
      <path class="cls-1" d="M40.6,122.07c7.91-2,15.82-3.97,23.74-5.91s15.92-3.86,23.9-5.75,15.87-3.72,23.82-5.54,15.9-3.6,23.86-5.35,15.92-3.48,23.89-5.18,16.03-3.38,24.05-5.03,15.97-3.25,23.96-4.83,15.99-3.13,23.99-4.66,16.01-3.02,24.02-4.49,16.11-2.93,24.17-4.35,16.05-2.81,24.08-4.17,16.07-2.7,24.1-4.01c8.04-1.31,16.08-2.6,24.13-3.86s16.18-2.51,24.27-3.73,16.11-2.4,24.17-3.56,16.12-2.3,24.19-3.41,16.33-2.23,24.5-3.31,16.15-2.11,24.22-3.13,16.16-2.02,24.24-3,16.16-1.93,24.25-2.87,16.36-1.87,24.54-2.77,16.49-1.79,24.74-2.66,16.5-1.71,24.75-2.53,16.5-1.62,24.75-2.41c8.29-.79,16.59-1.55,24.88-2.3s16.51-1.46,24.76-2.17,16.51-1.39,24.76-2.05c8.29-.67,16.59-1.32,24.89-1.95s16.51-1.24,24.76-1.83,16.5-1.17,24.76-1.73,16.5-1.1,24.75-1.63,16.58-1.04,24.87-1.54,16.49-.97,24.74-1.43,16.48-.91,24.73-1.34,16.48-.85,24.72-1.26,16.55-.8,24.83-1.18,16.46-.74,24.69-1.09c8.22-.35,16.45-.69,24.67-1.01s16.44-.64,24.65-.93,16.5-.59,24.76-.87,15.83-.52,23.75-.77c.32,0,.32-.51,0-.5-8.2.25-16.41.52-24.61.8s-16.51.57-24.76.87-16.44.61-24.65.94-16.45.66-24.67,1.01-16.54.72-24.81,1.1-16.47.77-24.7,1.17-16.56.83-24.84,1.26-16.49.88-24.73,1.35-16.49.94-24.74,1.44-16.58,1.01-24.87,1.54-16.5,1.07-24.75,1.63-16.51,1.14-24.76,1.73-16.59,1.21-24.89,1.85-16.51,1.28-24.76,1.95-16.51,1.35-24.76,2.06-16.59,1.44-24.89,2.18-16.51,1.51-24.76,2.29-16.59,1.6-24.88,2.42-16.5,1.67-24.75,2.54-16.49,1.75-24.74,2.66-16.35,1.83-24.52,2.77-16.17,1.89-24.25,2.87-16.16,1.98-24.24,3-16.23,2.08-24.34,3.16-16.02,2.15-24.03,3.25-16.21,2.27-24.31,3.44-16.12,2.35-24.17,3.56-16.1,2.45-24.15,3.71-16.17,2.56-24.25,3.88-16.07,2.65-24.1,4.02-16.06,2.76-24.08,4.17-16.12,2.88-24.17,4.36-16.02,2.97-24.02,4.5-16,3.08-23.99,4.66-16.06,3.21-24.08,4.86-15.96,3.31-23.93,5.01-16.01,3.44-24.01,5.21-15.91,3.54-23.86,5.36-15.89,3.66-23.82,5.54-15.94,3.81-23.9,5.76-15.28,3.77-22.91,5.71c-.31.08-.18.56.13.48h0Z"/>
      <path class="cls-1" d="M42.16,177.65c7.95-1.98,15.9-3.94,23.86-5.89s16-3.89,24.01-5.81,15.95-3.8,23.93-5.66c7.98-1.87,15.97-3.72,23.95-5.55s15.98-3.64,23.98-5.44,16.08-3.58,24.13-5.35,16.02-3.49,24.03-5.2,16.04-3.41,24.06-5.09,16.05-3.33,24.08-4.97,16.15-3.27,24.23-4.87,16.08-3.17,24.13-4.73,16.09-3.09,24.15-4.61,16.11-3.01,24.17-4.48,16.2-2.94,24.3-4.38,16.13-2.84,24.2-4.24,16.14-2.76,24.22-4.11,16.23-2.69,24.35-4,16.16-2.59,24.24-3.85,16.17-2.5,24.26-3.72,16.18-2.42,24.27-3.59,16.35-2.35,24.53-3.5,16.56-2.29,24.84-3.4c8.22-1.1,16.44-2.18,24.67-3.24s16.45-2.09,24.67-3.1c8.26-1.02,16.53-2.01,24.8-2.98s16.45-1.9,24.68-2.82,16.46-1.81,24.69-2.68,16.54-1.72,24.81-2.55,16.46-1.62,24.69-2.39,16.46-1.52,24.69-2.25,16.46-1.42,24.69-2.1,16.54-1.33,24.81-1.96,16.45-1.23,24.68-1.8,16.45-1.13,24.68-1.65,16.45-1.03,24.67-1.5,16.52-.93,24.79-1.36,16.44-.82,24.66-1.2,16.43-.72,24.65-1.04,16.42-.62,24.64-.89,16.5-.52,24.75-.74,15.83-.4,23.75-.56c.32,0,.32-.51,0-.5-8.21.17-16.41.36-24.61.58s-16.5.47-24.75.74-16.43.57-24.64.89-16.43.67-24.65,1.05-16.52.78-24.78,1.21-16.45.88-24.67,1.36-16.53.99-24.8,1.52-16.45,1.08-24.68,1.66-16.46,1.18-24.68,1.81-16.54,1.29-24.81,1.97-16.46,1.38-24.69,2.11-16.46,1.48-24.69,2.25-16.54,1.58-24.81,2.41-16.46,1.67-24.69,2.54-16.46,1.77-24.69,2.69-16.54,1.87-24.81,2.84-16.45,1.96-24.68,2.97-16.53,2.06-24.8,3.12-16.33,2.13-24.49,3.22-16.44,2.23-24.66,3.38-16.35,2.31-24.52,3.5-16.18,2.38-24.27,3.6-16.17,2.46-24.26,3.73-16.25,2.56-24.37,3.88-16.16,2.64-24.23,3.99-16.23,2.73-24.34,4.13-16.14,2.81-24.2,4.24-16.13,2.89-24.18,4.36-16.19,2.99-24.29,4.51-16.1,3.05-24.15,4.61-16.09,3.13-24.13,4.73-16.15,3.23-24.23,4.88-16.06,3.3-24.08,4.97-16.04,3.37-24.06,5.09c-8.06,1.73-16.11,3.47-24.15,5.23s-16.01,3.53-24.01,5.33-16.07,3.63-24.1,5.47-15.97,3.68-23.95,5.56-15.95,3.76-23.92,5.67-16.01,3.85-24.01,5.81-15.36,3.77-23.03,5.68c-.31.08-.18.56.13.48h0Z"/>
      <path class="cls-1" d="M43.72,233.24c7.99-1.96,15.99-3.92,23.99-5.87s16.09-3.91,24.13-5.86,16.02-3.87,24.03-5.79,16.03-3.84,24.05-5.75,16.13-3.83,24.19-5.73,16.06-3.77,24.09-5.64,16.15-3.75,24.23-5.61,16.08-3.69,24.13-5.52,16.09-3.64,24.14-5.45,16.18-3.61,24.28-5.4,16.11-3.54,24.17-5.29,16.12-3.48,24.19-5.21,16.21-3.44,24.32-5.14,16.14-3.36,24.22-5.02,16.15-3.29,24.23-4.91,16.24-3.24,24.36-4.83,16.17-3.15,24.25-4.69,16.25-3.09,24.39-4.6,16.18-2.99,24.28-4.45,16.19-2.9,24.29-4.32,16.34-2.84,24.52-4.23,16.36-2.75,24.55-4.09,16.37-2.65,24.56-3.94,16.46-2.57,24.69-3.81,16.38-2.45,24.58-3.63,16.47-2.35,24.7-3.48,16.51-2.24,24.77-3.32,16.39-2.11,24.59-3.12,16.48-2,24.72-2.96,16.4-1.87,24.6-2.76c8.2-.89,16.4-1.74,24.6-2.57s16.48-1.62,24.73-2.38,16.4-1.48,24.6-2.17,16.4-1.34,24.6-1.96,16.48-1.21,24.73-1.75,16.4-1.06,24.6-1.53,16.48-.91,24.73-1.31,16.4-.75,24.6-1.07,16.4-.6,24.6-.84,16.48-.44,24.72-.6,15.82-.27,23.73-.35c.32,0,.32-.5,0-.5-8.2.08-16.39.2-24.59.36s-16.48.37-24.72.61c-8.2.24-16.4.53-24.6.85s-16.48.69-24.72,1.09-16.4.84-24.6,1.31-16.49.99-24.73,1.54-16.41,1.13-24.6,1.75-16.49,1.28-24.73,1.98c-8.2.69-16.41,1.42-24.6,2.17s-16.49,1.56-24.73,2.39-16.4,1.68-24.6,2.57-16.48,1.82-24.72,2.78-16.4,1.94-24.59,2.95-16.4,2.06-24.59,3.13-16.36,2.17-24.53,3.3-16.39,2.29-24.58,3.47-16.47,2.41-24.7,3.65c-8.19,1.24-16.38,2.5-24.57,3.79s-16.46,2.62-24.68,3.97-16.37,2.71-24.55,4.09-16.35,2.8-24.51,4.23-16.19,2.86-24.29,4.33-16.27,2.96-24.4,4.48-16.18,3.03-24.27,4.58-16.25,3.13-24.38,4.72-16.17,3.19-24.24,4.81-16.24,3.28-24.35,4.94-16.15,3.33-24.22,5.02-16.14,3.4-24.2,5.12-16.21,3.47-24.31,5.23-16.12,3.52-24.17,5.29-16.19,3.59-24.28,5.4-16.1,3.62-24.14,5.45-16.17,3.69-24.25,5.55-16.07,3.71-24.11,5.59c-8.07,1.88-16.14,3.77-24.21,5.68s-16.05,3.79-24.07,5.7-16.12,3.85-24.17,5.78-16.02,3.86-24.03,5.8-16.09,3.9-24.13,5.86-15.43,3.77-23.15,5.66c-.31.08-.18.56.13.48h0Z"/>
      <path class="cls-1" d="M45.27,288.82c8.04-1.94,16.07-3.89,24.11-5.84s16.08-3.92,24.12-5.89,16.17-3.96,24.25-5.95,16.09-3.96,24.14-5.95,16.1-3.97,24.15-5.96,16.11-3.98,24.16-5.97,16.2-4,24.29-6,16.12-3.97,24.18-5.95,16.13-3.96,24.19-5.93,16.13-3.94,24.2-5.9,16.22-3.93,24.33-5.89,16.15-3.88,24.22-5.81,16.15-3.84,24.23-5.75,16.16-3.8,24.24-5.68,16.24-3.76,24.37-5.62,16.17-3.69,24.26-5.51,16.18-3.62,24.27-5.41,16.18-3.55,24.28-5.3,16.27-3.49,24.41-5.21,16.19-3.39,24.29-5.06c8.12-1.67,16.25-3.32,24.39-4.94s16.34-3.23,24.51-4.81c8.21-1.59,16.42-3.15,24.64-4.68s16.35-3.02,24.53-4.49,16.35-2.9,24.53-4.31,16.36-2.78,24.54-4.12,16.44-2.66,24.67-3.94,16.37-2.51,24.56-3.72,16.37-2.37,24.56-3.5,16.49-2.24,24.75-3.3,16.46-2.07,24.7-3.05,16.38-1.9,24.58-2.79,16.39-1.73,24.59-2.53,16.39-1.56,24.59-2.27c8.24-.71,16.48-1.38,24.72-2,8.2-.62,16.4-1.19,24.61-1.71s16.4-.99,24.61-1.41,16.41-.79,24.62-1.11,16.49-.59,24.74-.8c8.21-.21,16.42-.37,24.63-.47s15.85-.14,23.77-.14c.32,0,.32-.5,0-.5-8.21,0-16.42.04-24.63.15s-16.5.27-24.75.48-16.42.48-24.62.81-16.41.7-24.62,1.12-16.49.9-24.73,1.43-16.41,1.1-24.61,1.72-16.4,1.29-24.6,2-16.48,1.48-24.72,2.29-16.4,1.65-24.59,2.54-16.39,1.83-24.58,2.8-16.47,2-24.7,3.06-16.27,2.13-24.39,3.26-16.38,2.3-24.56,3.51-16.46,2.46-24.68,3.74-16.37,2.59-24.55,3.93-16.37,2.72-24.54,4.13-16.44,2.86-24.66,4.33-16.36,2.97-24.53,4.49-16.43,3.1-24.64,4.68-16.35,3.19-24.51,4.82-16.26,3.27-24.38,4.94-16.28,3.37-24.42,5.09-16.19,3.44-24.29,5.19-16.19,3.52-24.28,5.3-16.26,3.61-24.39,5.44-16.18,3.66-24.26,5.51-16.17,3.72-24.25,5.6-16.24,3.79-24.36,5.71-16.16,3.82-24.23,5.75-16.15,3.86-24.22,5.81-16.22,3.92-24.33,5.89-16.14,3.93-24.2,5.9-16.13,3.95-24.19,5.93-16.2,3.99-24.3,5.98-16.12,3.98-24.17,5.97-16.11,3.98-24.16,5.97-16.18,4-24.27,5.99-16.09,3.97-24.14,5.95-16.08,3.95-24.13,5.92-16.16,3.95-24.24,5.92-15.51,3.77-23.27,5.64c-.31.08-.18.56.13.48h0Z"/>
      <path class="cls-1" d="M46.83,344.4c8.09-1.92,16.17-3.86,24.25-5.83s16.17-3.95,24.25-5.95,16.09-4,24.13-6.03,16.17-4.09,24.26-6.15,16.18-4.14,24.26-6.23,16.18-4.19,24.26-6.3,16.18-4.23,24.26-6.36,16.1-4.24,24.15-6.36,16.18-4.28,24.27-6.42,16.18-4.29,24.27-6.43c8.09-2.15,16.19-4.29,24.28-6.43s16.19-4.28,24.28-6.42,16.19-4.27,24.29-6.39,16.11-4.22,24.17-6.31,16.2-4.2,24.3-6.29,16.2-4.16,24.3-6.22,16.2-4.11,24.31-6.14,16.21-4.04,24.32-6.04,16.13-3.95,24.2-5.9,16.21-3.89,24.33-5.8,16.27-3.81,24.41-5.68,16.34-3.72,24.52-5.55,16.35-3.61,24.53-5.38,16.27-3.48,24.42-5.17,16.36-3.37,24.54-5,16.36-3.23,24.55-4.79,16.37-3.08,24.56-4.56,16.37-2.92,24.57-4.32,16.3-2.74,24.46-4.05,16.39-2.58,24.59-3.8,16.39-2.39,24.6-3.52,16.52-2.21,24.79-3.24,16.41-1.99,24.62-2.91,16.34-1.77,24.51-2.57,16.42-1.55,24.65-2.25,16.43-1.32,24.66-1.89,16.44-1.08,24.67-1.53,16.45-.83,24.68-1.14,16.46-.57,24.69-.75,16.39-.3,24.58-.34,15.91-.02,23.87.07c.32,0,.32-.5,0-.5-8.24-.09-16.48-.12-24.72-.07s-16.47.17-24.71.36c-8.23.19-16.46.44-24.69.77s-16.46.71-24.68,1.16-16.45.97-24.67,1.54-16.36,1.21-24.53,1.9-16.44,1.45-24.64,2.26-16.43,1.68-24.63,2.6-16.42,1.89-24.62,2.92-16.3,2.09-24.44,3.21-16.41,2.3-24.6,3.52-16.4,2.49-24.59,3.8-16.39,2.67-24.58,4.07-16.39,2.84-24.57,4.33-16.38,3.01-24.56,4.57-16.29,3.14-24.43,4.77-16.37,3.3-24.54,5-16.36,3.44-24.54,5.2-16.36,3.56-24.53,5.38c-8.18,1.82-16.35,3.68-24.52,5.55s-16.28,3.76-24.41,5.68c-8.11,1.91-16.22,3.85-24.33,5.8s-16.22,3.93-24.32,5.93-16.21,4.01-24.32,6.04-16.21,4.08-24.31,6.14-16.21,4.14-24.3,6.22-16.12,4.16-24.18,6.26-16.2,4.22-24.29,6.35-16.19,4.25-24.29,6.39-16.19,4.28-24.28,6.42-16.19,4.29-24.28,6.43-16.18,4.29-24.27,6.43c-8.09,2.14-16.18,4.28-24.27,6.42s-16.18,4.27-24.27,6.39-16.17,4.24-24.26,6.35-16.17,4.21-24.26,6.3-16.17,4.17-24.26,6.23-16.09,4.09-24.14,6.12-16.17,4.05-24.25,6.05-16.16,3.98-24.25,5.94-15.61,3.77-23.41,5.62c-.31.07-.18.56.13.48h0Z"/>
      <path class="cls-1" d="M46.83,394.44c8.08-1.73,16.15-3.47,24.22-5.23s16.15-3.55,24.22-5.34,16.23-3.63,24.35-5.47,16.15-3.67,24.23-5.53,16.15-3.72,24.23-5.6,16.16-3.77,24.23-5.67,16.24-3.82,24.35-5.75,16.16-3.83,24.23-5.76,16.16-3.86,24.24-5.79,16.16-3.87,24.24-5.81,16.24-3.9,24.36-5.85,16.16-3.88,24.25-5.81,16.17-3.87,24.25-5.8,16.17-3.85,24.25-5.77c8.12-1.93,16.25-3.85,24.38-5.77s16.17-3.8,24.26-5.69,16.17-3.76,24.27-5.63,16.18-3.72,24.27-5.56,16.26-3.68,24.4-5.5,16.18-3.61,24.28-5.38,16.22-3.54,24.34-5.29,16.26-3.48,24.4-5.19,16.35-3.41,24.53-5.08,16.27-3.3,24.41-4.92,16.27-3.2,24.42-4.77,16.28-3.1,24.42-4.61,16.36-3,24.55-4.46c8.14-1.45,16.29-2.86,24.44-4.25s16.29-2.74,24.44-4.05,16.3-2.6,24.45-3.85,16.38-2.47,24.58-3.64,16.42-2.32,24.65-3.42,16.31-2.14,24.48-3.15,16.32-1.98,24.48-2.9,16.41-1.81,24.62-2.65,16.33-1.62,24.5-2.36,16.34-1.43,24.51-2.07,16.34-1.23,24.52-1.78,16.43-1.04,24.65-1.47,16.36-.82,24.54-1.14,15.8-.58,23.7-.79c.32,0,.32-.51,0-.5-8.19.22-16.37.49-24.55.82s-16.44.72-24.66,1.16-16.36.93-24.53,1.48-16.35,1.14-24.52,1.79-16.43,1.35-24.63,2.09-16.34,1.53-24.5,2.37-16.33,1.72-24.49,2.65-16.41,1.91-24.61,2.92-16.32,2.07-24.48,3.16-16.2,2.21-24.29,3.38-16.39,2.4-24.58,3.65-16.31,2.53-24.45,3.85-16.3,2.67-24.44,4.06-16.38,2.82-24.56,4.27-16.29,2.93-24.43,4.44-16.29,3.05-24.42,4.61-16.36,3.17-24.54,4.8-16.28,3.26-24.41,4.92-16.35,3.37-24.53,5.09-16.27,3.44-24.4,5.19-16.23,3.51-24.33,5.29-16.27,3.59-24.4,5.41-16.19,3.64-24.28,5.48-16.18,3.7-24.27,5.56-16.26,3.76-24.39,5.66-16.18,3.79-24.26,5.69-16.17,3.82-24.26,5.74-16.25,3.86-24.37,5.8-16.17,3.86-24.25,5.8-16.16,3.88-24.25,5.81c-8.12,1.95-16.24,3.9-24.36,5.85s-16.16,3.88-24.24,5.81-16.16,3.86-24.24,5.79-16.24,3.86-24.35,5.79-16.15,3.82-24.23,5.72-16.15,3.79-24.23,5.66-16.23,3.76-24.35,5.63-16.15,3.7-24.23,5.52-16.15,3.64-24.22,5.44-16.23,3.59-24.34,5.37-15.58,3.38-23.38,5.05c-.31.07-.18.55.13.48h0Z"/>
      <path class="cls-1" d="M46.83,444.48c16.21-3.08,32.42-6.22,48.61-9.43,16.21-3.21,32.42-6.47,48.61-9.77,16.21-3.31,32.42-6.66,48.61-10.05,16.13-3.37,32.26-6.78,48.38-10.2s32.42-6.91,48.63-10.39,32.42-6.97,48.63-10.46,32.27-6.95,48.4-10.41c16.21-3.48,32.43-6.95,48.65-10.39s32.44-6.86,48.67-10.25,32.45-6.74,48.68-10.04,32.34-6.54,48.52-9.73c16.26-3.21,32.53-6.36,48.81-9.44s32.54-6.09,48.82-9.02c16.19-2.91,32.38-5.75,48.6-8.49s32.56-5.42,48.86-7.98,32.57-5.01,48.89-7.35,32.71-4.57,49.09-6.67c16.21-2.08,32.44-4.03,48.69-5.85,16.3-1.82,32.63-3.51,48.96-5.04s32.65-2.92,48.99-4.14c7.84-.59,15.68-1.13,23.52-1.64.32-.02.32-.52,0-.5-16.35,1.06-32.68,2.29-49,3.68-16.34,1.39-32.66,2.93-48.97,4.62-16.33,1.69-32.65,3.52-48.95,5.49s-32.51,4.05-48.74,6.27-32.61,4.57-48.9,7.02-32.44,4.99-48.63,7.64c-16.3,2.66-32.58,5.42-48.85,8.27-16.29,2.85-32.57,5.78-48.83,8.79s-32.56,6.1-48.82,9.24-32.54,6.36-48.8,9.63c-16.16,3.24-32.32,6.54-48.47,9.87-16.23,3.35-32.46,6.74-48.67,10.16s-32.44,6.87-48.66,10.33-32.43,6.95-48.65,10.44-32.43,6.98-48.64,10.47c-16.13,3.47-32.26,6.93-48.39,10.38s-32.41,6.91-48.62,10.33-32.4,6.81-48.62,10.16-32.4,6.66-48.61,9.91-32.39,6.46-48.61,9.6c-7.77,1.51-15.55,3-23.33,4.48-.32.06-.18.54.13.48h0Z"/>
      <path class="cls-1" d="M46.83,494.52c16.24-2.7,32.48-5.45,48.7-8.25s32.31-5.63,48.46-8.51c16.24-2.9,32.47-5.84,48.7-8.81s32.31-5.95,48.46-8.96,32.31-6.06,48.46-9.12,32.48-6.17,48.71-9.27c16.16-3.09,32.31-6.18,48.47-9.28s32.48-6.23,48.72-9.34,32.32-6.18,48.48-9.25,32.32-6.13,48.49-9.17,32.5-6.08,48.76-9.08c16.17-2.98,32.35-5.94,48.53-8.85s32.52-5.82,48.79-8.66,32.36-5.61,48.55-8.34,32.37-5.4,48.56-8.01c16.26-2.62,32.54-5.18,48.82-7.67s32.38-4.88,48.59-7.21c16.25-2.33,32.51-4.59,48.78-6.76s32.56-4.25,48.86-6.24,32.41-3.86,48.63-5.64c7.86-.86,15.72-1.7,23.59-2.52.32-.03.32-.53,0-.5-16.31,1.69-32.6,3.48-48.89,5.38-16.22,1.89-32.43,3.87-48.62,5.94s-32.46,4.25-48.68,6.5-32.41,4.58-48.59,6.98-32.56,4.91-48.83,7.47-32.39,5.16-48.57,7.83c-16.28,2.69-32.54,5.43-48.8,8.23s-32.37,5.62-48.55,8.49c-16.27,2.89-32.53,5.82-48.78,8.79-16.18,2.95-32.36,5.94-48.53,8.95s-32.5,6.08-48.74,9.15-32.33,6.13-48.49,9.22-32.48,6.21-48.72,9.33-32.31,6.2-48.47,9.29c-16.24,3.11-32.47,6.21-48.71,9.3s-32.31,6.14-48.46,9.18c-16.23,3.05-32.47,6.09-48.71,9.09s-32.3,5.94-48.46,8.87-32.46,5.83-48.7,8.68c-16.14,2.83-32.3,5.62-48.46,8.36-7.83,1.33-15.66,2.64-23.49,3.94-.32.05-.18.53.13.48h0Z"/>
      <path class="cls-1" d="M46.83,544.56c16.26-2.31,32.52-4.67,48.77-7.07,16.18-2.39,32.35-4.82,48.52-7.29,16.18-2.47,32.35-4.98,48.52-7.52,16.18-2.54,32.35-5.11,48.52-7.71s32.35-5.23,48.52-7.89,32.43-5.35,48.64-8.05c16.22-2.7,32.43-5.43,48.64-8.17s32.35-5.48,48.52-8.24c16.17-2.76,32.35-5.52,48.52-8.3,16.17-2.77,32.35-5.55,48.52-8.33s32.33-5.56,48.5-8.34,32.5-5.58,48.74-8.36,32.33-5.52,48.5-8.27,32.33-5.48,48.5-8.19c16.17-2.71,32.33-5.41,48.51-8.09,16.17-2.68,32.33-5.33,48.51-7.96,16.17-2.63,32.34-5.23,48.51-7.8s32.5-5.14,48.76-7.66c16.17-2.51,32.34-4.98,48.52-7.41,16.17-2.43,32.34-4.82,48.52-7.17,7.8-1.13,15.6-2.25,23.4-3.36.32-.05.18-.53-.13-.48-16.26,2.32-32.52,4.68-48.77,7.08s-32.35,4.83-48.52,7.3-32.35,4.98-48.52,7.52-32.35,5.12-48.51,7.72c-16.17,2.6-32.34,5.23-48.51,7.89s-32.42,5.35-48.63,8.05c-16.21,2.71-32.42,5.43-48.63,8.17-16.17,2.73-32.34,5.48-48.5,8.23s-32.33,5.52-48.5,8.3c-16.17,2.77-32.33,5.55-48.5,8.33s-32.34,5.56-48.51,8.34c-16.25,2.79-32.51,5.58-48.77,8.36s-32.34,5.52-48.52,8.27c-16.17,2.74-32.34,5.48-48.52,8.19-16.17,2.71-32.34,5.41-48.52,8.09s-32.34,5.33-48.52,7.96-32.34,5.23-48.52,7.8c-16.25,2.58-32.51,5.14-48.77,7.65-16.17,2.5-32.34,4.97-48.52,7.4s-32.34,4.82-48.52,7.16c-7.8,1.13-15.6,2.25-23.4,3.36-.32.05-.18.53.13.48h0Z"/>
      <path class="cls-1" d="M46.41,613.24c16.25-2.02,32.5-4.11,48.73-6.28s32.21-4.37,48.3-6.65c16.17-2.29,32.33-4.65,48.48-7.06s32.49-4.9,48.72-7.43,32.32-5.08,48.47-7.67c16.16-2.6,32.32-5.24,48.47-7.91,16.24-2.68,32.48-5.4,48.71-8.13,16.16-2.72,32.31-5.46,48.46-8.22s32.31-5.53,48.46-8.3c16.24-2.79,32.47-5.58,48.71-8.37s32.31-5.55,48.47-8.31,32.31-5.51,48.47-8.24c16.24-2.74,32.47-5.47,48.72-8.16,16.15-2.68,32.31-5.33,48.47-7.95s32.31-5.19,48.48-7.73,32.48-5.05,48.73-7.5,32.32-4.81,48.49-7.14c16.16-2.32,32.32-4.58,48.5-6.76s32.45-4.32,48.69-6.36c16.24-2.05,32.5-4.01,48.76-5.9,7.8-.9,15.6-1.78,23.4-2.64.32-.03.32-.54,0-.5-16.27,1.79-32.52,3.68-48.77,5.65s-32.35,4-48.51,6.12c-16.12,2.11-32.22,4.29-48.32,6.54-16.26,2.27-32.5,4.6-48.74,6.99-16.17,2.38-32.33,4.82-48.49,7.31-16.17,2.49-32.33,5.03-48.48,7.6-16.25,2.59-32.49,5.22-48.72,7.89s-32.32,5.34-48.47,8.04c-16.16,2.71-32.32,5.44-48.47,8.19-16.24,2.76-32.48,5.54-48.71,8.33-16.16,2.77-32.31,5.55-48.46,8.33-16.15,2.78-32.31,5.55-48.46,8.32s-32.47,5.55-48.71,8.31c-16.15,2.74-32.31,5.46-48.46,8.16-16.15,2.7-32.3,5.37-48.46,8s-32.47,5.26-48.71,7.83c-16.15,2.56-32.31,5.07-48.47,7.54s-32.31,4.88-48.47,7.23c-16.15,2.35-32.31,4.64-48.48,6.87-16.29,2.24-32.6,4.42-48.91,6.52-7.79,1-15.59,1.99-23.38,2.95-.32.04-.32.54,0,.5h0Z"/>
      <path class="cls-1" d="M46.07,681.91c16.25-1.72,32.49-3.55,48.72-5.49,16.17-1.93,32.32-3.96,48.46-6.07,16.18-2.12,32.36-4.33,48.52-6.62,16.16-2.29,32.31-4.65,48.45-7.08,16.24-2.44,32.47-4.95,48.69-7.51s32.3-5.15,48.44-7.79c16.15-2.64,32.29-5.32,48.43-8.04,16.23-2.73,32.46-5.48,48.68-8.25s32.29-5.53,48.43-8.31c16.23-2.79,32.45-5.59,48.68-8.38s32.29-5.54,48.43-8.29,32.29-5.47,48.44-8.17c16.22-2.71,32.45-5.38,48.69-8.02,16.14-2.62,32.29-5.19,48.45-7.71,16.22-2.53,32.46-5,48.7-7.4,16.14-2.39,32.3-4.71,48.46-6.95s32.5-4.43,48.77-6.51c16.19-2.07,32.39-4.05,48.6-5.92,16.15-1.87,32.32-3.63,48.49-5.27,16.24-1.65,32.49-3.18,48.75-4.59,7.8-.67,15.59-1.31,23.4-1.93.32-.02.32-.53,0-.5-16.26,1.27-32.52,2.68-48.76,4.22-16.18,1.53-32.34,3.18-48.5,4.94-16.26,1.77-32.5,3.66-48.73,5.64s-32.33,4.05-48.48,6.2c-16.19,2.16-32.37,4.41-48.53,6.74s-32.31,4.72-48.46,7.17c-16.16,2.46-32.31,4.98-48.45,7.55-16.24,2.59-32.47,5.22-48.69,7.89-16.15,2.66-32.3,5.36-48.44,8.08s-32.46,5.5-48.68,8.28c-16.15,2.76-32.29,5.54-48.43,8.32-16.14,2.78-32.29,5.56-48.43,8.33-16.22,2.78-32.45,5.56-48.68,8.31s-32.28,5.45-48.43,8.13c-16.22,2.69-32.45,5.35-48.68,7.96s-32.28,5.14-48.44,7.63c-16.18,2.49-32.37,4.93-48.57,7.3-16.18,2.36-32.37,4.66-48.57,6.86s-32.41,4.33-48.64,6.37-32.46,3.97-48.71,5.79c-7.79.88-15.58,1.73-23.38,2.55-.32.03-.32.53,0,.5h0Z"/>
      <path class="cls-1" d="M45.72,750.58c16.24-1.42,32.47-2.99,48.68-4.69,16.24-1.7,32.46-3.54,48.66-5.49,16.15-1.94,32.29-4,48.41-6.16,16.17-2.16,32.32-4.42,48.46-6.77s32.27-4.77,48.39-7.26c16.22-2.51,32.43-5.08,48.63-7.71s32.26-5.28,48.38-7.98c16.21-2.71,32.42-5.46,48.62-8.23,16.13-2.76,32.25-5.53,48.38-8.31s32.41-5.59,48.62-8.38,32.27-5.53,48.41-8.27c16.22-2.75,32.44-5.47,48.68-8.14,16.14-2.66,32.28-5.28,48.44-7.83s32.45-5.08,48.69-7.51c16.14-2.42,32.29-4.76,48.45-7.01s32.58-4.44,48.89-6.51,32.3-3.98,48.47-5.8c16.23-1.82,32.48-3.52,48.73-5.08s32.32-2.95,48.5-4.21c16.24-1.26,32.5-2.36,48.77-3.28,7.8-.44,15.6-.85,23.41-1.21.32-.01.32-.51,0-.5-16.27.75-32.53,1.69-48.78,2.79s-32.52,2.37-48.76,3.79c-16.18,1.41-32.34,2.97-48.5,4.66-16.26,1.7-32.5,3.53-48.73,5.48s-32.33,4-48.47,6.15c-16.19,2.16-32.36,4.42-48.52,6.76-16.16,2.34-32.31,4.77-48.45,7.26-16.24,2.51-32.47,5.08-48.68,7.71-16.15,2.61-32.3,5.28-48.43,7.98s-32.45,5.47-48.67,8.24-32.26,5.53-48.39,8.31-32.41,5.59-48.62,8.38c-16.12,2.77-32.25,5.53-48.38,8.26s-32.41,5.46-48.62,8.14c-16.12,2.66-32.25,5.27-48.38,7.83-16.2,2.57-32.41,5.08-48.63,7.51-16.12,2.42-32.25,4.76-48.39,7.01-16.26,2.27-32.54,4.45-48.83,6.52-16.12,2.05-32.26,3.99-48.41,5.81-16.21,1.83-32.43,3.53-48.67,5.09-7.78.75-15.57,1.46-23.36,2.15-.32.03-.32.53,0,.5h0Z"/>
      <path class="cls-1" d="M45.37,819.25c16.23-1.13,32.46-2.44,48.66-3.91,16.23-1.47,32.45-3.11,48.65-4.88,16.14-1.77,32.27-3.68,48.39-5.71,16.16-2.04,32.31-4.19,48.44-6.45,16.22-2.27,32.42-4.64,48.61-7.09,16.13-2.44,32.25-4.96,48.36-7.55,16.21-2.6,32.4-5.26,48.6-7.96,16.12-2.69,32.24-5.43,48.35-8.18,16.2-2.77,32.39-5.56,48.59-8.36s32.39-5.6,48.59-8.38,32.25-5.53,48.38-8.24,32.42-5.43,48.65-8.07c16.13-2.62,32.26-5.19,48.41-7.69s32.43-4.93,48.66-7.27c16.27-2.34,32.55-4.58,48.85-6.71,16.13-2.1,32.28-4.09,48.44-5.95,16.22-1.86,32.45-3.59,48.7-5.16,16.14-1.56,32.3-2.97,48.47-4.2,16.23-1.24,32.48-2.29,48.74-3.16s32.5-1.53,48.76-1.97c7.8-.21,15.6-.38,23.4-.49.32,0,.32-.5,0-.5-16.26.23-32.52.69-48.77,1.36-16.26.67-32.51,1.54-48.75,2.6-16.17,1.06-32.33,2.3-48.48,3.7-16.25,1.41-32.49,3-48.71,4.72-16.25,1.73-32.48,3.6-48.69,5.6s-32.18,4.09-48.25,6.3c-16.24,2.23-32.46,4.57-48.67,7-16.15,2.41-32.28,4.91-48.41,7.48-16.23,2.58-32.44,5.22-48.65,7.91s-32.43,5.43-48.64,8.2c-16.12,2.75-32.24,5.52-48.36,8.31s-32.39,5.6-48.59,8.39-32.23,5.54-48.34,8.26c-16.19,2.74-32.39,5.45-48.59,8.11-16.19,2.65-32.39,5.26-48.6,7.79-16.11,2.51-32.23,4.96-48.36,7.31s-32.51,4.65-48.79,6.81c-16.11,2.14-32.24,4.18-48.38,6.08-16.2,1.91-32.41,3.69-48.64,5.31s-32.42,3.09-48.65,4.39c-7.78.62-15.56,1.2-23.35,1.74-.32.02-.32.52,0,.5h0Z"/>
    </g>
  </g>
</svg>